<svg width="24" height="24" viewBox="0 0 24 24" fill="none" xmlns="http://www.w3.org/2000/svg">
<path d="M20.0384 20.5734C20.5694 20.5734 21 20.1543 21 19.6374V4.55092C21 4.0339 20.5694 3.61492 20.0384 3.61492H4.53826C4.00706 3.61492 3.57666 4.0339 3.57666 4.55092V19.6374C3.57666 20.1543 4.00706 20.5734 4.53826 20.5734H20.0384Z" fill="#3B5998"/>
<path d="M15.5993 20.5734V14.0062H17.8641L18.2032 11.4468H15.5993V9.81278C15.5993 9.07178 15.8106 8.56683 16.9024 8.56683L18.2949 8.56619V6.27711C18.054 6.24597 17.2275 6.17627 16.2659 6.17627C14.2582 6.17627 12.8839 7.36898 12.8839 9.55938V11.4468H10.6133V14.0062H12.8839V20.5734H15.5993Z" fill="white"/>
</svg>
