<svg width="48" height="48" viewBox="0 0 48 48" fill="none" xmlns="http://www.w3.org/2000/svg">
<g clip-path="url(#clip0_17591_3257)">
<path d="M40.3848 16.3503C40.24 15.2882 39.6749 14.3286 38.8163 13.6868L37.3035 12.5561C36.6121 12.0393 35.772 11.76 34.9087 11.76H13.0781C12.2149 11.76 11.3748 12.0393 10.6834 12.5561L9.17145 13.6862C8.31232 14.3283 7.74709 15.2886 7.60265 16.3514L5.36104 32.846C5.1163 34.6469 6.51631 36.25 8.33371 36.25H11.7302C12.9303 36.25 14.0149 35.5348 14.4877 34.4318L16.1289 30.6022C16.4441 29.8668 17.1672 29.39 17.9672 29.39H30.0196C30.8197 29.39 31.5428 29.8668 31.8579 30.6022L33.4992 34.4318C33.9719 35.5348 35.0565 36.25 36.2566 36.25H39.6616C41.4795 36.25 42.8797 34.646 42.6341 32.8447L40.3848 16.3503ZM20.5884 20.58H17.6284V23.51H15.6284V20.58H12.7284V18.58H15.6284V15.68H17.6284V18.58H20.5884V20.58ZM30.3384 18.6H27.4284V15.68H30.3384V18.6ZM34.2784 23.5H31.3284V20.56H34.2784V23.5Z" fill="#1A73E8"/>
</g>
<defs>
<clipPath id="clip0_17591_3257">
<rect width="48" height="48" fill="white"/>
</clipPath>
</defs>
</svg>
