<svg width="99" height="67" viewBox="0 0 99 67" fill="none" xmlns="http://www.w3.org/2000/svg">
<g clip-path="url(#clip0_1828_10314)">
<path d="M90.1199 55.4698H82.2899L69.1299 38.3298H69.3099C72.6916 38.3437 76.0158 37.4549 78.9392 35.755C81.8626 34.0551 84.2793 31.6057 85.9399 28.6598C87.6031 25.7776 88.4758 22.5074 88.4699 19.1798C88.4731 15.8507 87.6043 12.5787 85.9499 9.68977C84.2731 6.75499 81.8516 4.31459 78.93 2.61497C76.0083 0.915363 72.69 0.0167065 69.3099 0.00976562H26.4099L34.5499 10.6098H69.3099C71.5811 10.6124 73.7583 11.5165 75.3634 13.1234C76.9684 14.7303 77.8699 16.9086 77.8699 19.1798C77.8673 21.4492 76.9646 23.625 75.3598 25.2297C73.7551 26.8344 71.5794 27.7371 69.3099 27.7398H47.6799L77.1099 66.0598H98.2499L90.1199 55.4698Z" fill="#FF385C"/>
<path d="M59.82 55.4698H34.17C31.8987 55.4645 29.722 54.5599 28.116 52.9538C26.5099 51.3478 25.6053 49.171 25.6 46.8998C25.6053 44.6294 26.5102 42.4537 28.1166 40.8492C29.7229 39.2448 31.8997 38.3424 34.17 38.3398H46.17L38.17 28.3398L37.71 27.7598H34.17C30.7851 27.7669 27.4623 28.6689 24.5383 30.3741C21.6143 32.0793 19.1931 34.5272 17.52 37.4698C15.8678 40.3596 14.9992 43.631 15 46.9598C14.9948 49.8024 15.6251 52.6103 16.8449 55.1779C18.0647 57.7456 19.8431 60.008 22.05 61.7998C25.47 64.596 29.7524 66.1224 34.17 66.1198H68.17L59.82 55.4698Z" fill="#FF385C"/>
<path d="M7.32 43.0799C11.3627 43.0799 14.64 39.8027 14.64 35.7599C14.64 31.7172 11.3627 28.4399 7.32 28.4399C3.27728 28.4399 0 31.7172 0 35.7599C0 39.8027 3.27728 43.0799 7.32 43.0799Z" fill="#FF385C"/>
</g>
<defs>
<clipPath id="clip0_1828_10314">
<rect width="98.25" height="66.08" fill="white"/>
</clipPath>
</defs>
</svg>
