<svg width="32" height="32" viewBox="0 0 32 32" fill="none" xmlns="http://www.w3.org/2000/svg">
<g clip-path="url(#clip0_23378_2468)">
<path d="M3.26172 3.2666V28.7333H28.8684V3.2666H3.26172ZM14.3951 5.21993C15.1151 5.21993 15.7017 5.8066 15.7017 6.5266C15.7017 7.2466 15.1151 7.83327 14.3951 7.83327C13.6751 7.83327 13.0884 7.25327 13.0884 6.5266C13.0884 5.79993 13.6751 5.21993 14.3951 5.21993ZM10.4817 5.21993C11.2084 5.21993 11.7884 5.8066 11.7884 6.5266C11.7884 7.2466 11.2084 7.83327 10.4817 7.83327C9.75505 7.83327 9.17505 7.25327 9.17505 6.5266C9.17505 5.79993 9.76172 5.21993 10.4817 5.21993ZM6.56839 5.21993C7.29505 5.21993 7.87505 5.8066 7.87505 6.5266C7.87505 7.2466 7.29505 7.83327 6.56839 7.83327C5.84172 7.83327 5.26172 7.25327 5.26172 6.5266C5.26172 5.79993 5.84839 5.21993 6.56839 5.21993ZM10.8151 26.7333L12.0617 25.6733C12.9417 24.9199 14.0684 24.5066 15.2217 24.5066H16.7751C17.9351 24.5066 19.0551 24.9199 19.9351 25.6733L21.1817 26.7333H10.8151ZM26.8684 26.7333H24.1617L24.2084 26.6799L21.2351 24.1466C19.9884 23.0933 18.4084 22.5066 16.7751 22.5066H15.2217C13.5884 22.5066 12.0084 23.0933 10.7684 24.1466L7.79505 26.6799L7.83505 26.7333H5.26172V9.77994H26.8684V26.7333Z" fill="#1A73E8"/>
<path d="M16.0613 11.7532C13.3613 11.7532 11.168 13.9465 11.168 16.6532C11.168 19.3598 13.3613 21.5465 16.0613 21.5465C18.7613 21.5465 20.9613 19.3532 20.9613 16.6532C20.9613 13.9532 18.768 11.7532 16.0613 11.7532ZM16.0613 19.5465C14.468 19.5465 13.168 18.2465 13.168 16.6532C13.168 15.0598 14.468 13.7532 16.0613 13.7532C17.6546 13.7532 18.9613 15.0532 18.9613 16.6532C18.9613 18.2532 17.6613 19.5465 16.0613 19.5465Z" fill="#1A73E8"/>
</g>
<defs>
<clipPath id="clip0_23378_2468">
<rect width="32" height="32" fill="white"/>
</clipPath>
</defs>
</svg>
