<svg width="48" height="48" viewBox="0 0 48 48" fill="none" xmlns="http://www.w3.org/2000/svg">
<g clip-path="url(#clip0_17591_3230)">
<path d="M25.5 30.91L22.5 30.89C22.5 30.69 22.56 25.9 28.13 17.36L30.64 19C25.64 26.67 25.5 30.86 25.5 30.91Z" fill="#1A73E8"/>
<path d="M22.5094 31.5C21.8394 24.9 16.1694 20.37 16.1094 20.33L17.9594 17.97C18.2394 18.18 24.6894 23.31 25.4994 31.21L22.5194 31.51L22.5094 31.5Z" fill="#1A73E8"/>
<path d="M37.22 16.1L37.2 4.90002L27.38 10.28C23 12.68 22.41 18.94 26.49 21.82C26.66 21.94 26.83 22.05 27 22.15C27.17 22.25 27.36 22.35 27.54 22.44C32.02 24.62 37.23 21.09 37.22 16.1Z" fill="#1A73E8"/>
<path d="M18.1594 12.6401L9.85938 8.82007L10.4794 17.9401C10.7594 22.0001 15.1894 24.5901 18.7194 22.5501C18.8594 22.4701 18.9994 22.3801 19.1394 22.2801C19.2794 22.1801 19.4094 22.0801 19.5394 21.9801C22.6894 19.4101 21.8594 14.3401 18.1594 12.6401Z" fill="#1A73E8"/>
<path d="M35.5817 41.4289C35.4047 42.9404 34.124 44.0799 32.6021 44.0799H15.4004C13.8785 44.0799 12.5978 42.9404 12.4208 41.4289L10.7812 27.4299H37.2213L35.5817 41.4289Z" fill="#1A73E8"/>
</g>
<defs>
<clipPath id="clip0_17591_3230">
<rect width="48" height="48" fill="white"/>
</clipPath>
</defs>
</svg>
