<svg width="32" height="32" viewBox="0 0 32 32" fill="none" xmlns="http://www.w3.org/2000/svg">
<g clip-path="url(#clip0_23378_2500)">
<path d="M21.5664 3.2666H7.17974V13.0599H4.56641V23.5133H7.17974V28.7333H27.4264V9.7666C25.3464 7.6866 23.6464 5.3466 21.5664 3.2666ZM21.5864 6.21993C22.0464 6.73993 22.5064 7.2666 22.9731 7.81993C23.5264 8.45993 24.0997 9.11327 24.6864 9.7666H21.5797V6.21993H21.5864ZM8.79974 15.3199C9.39307 14.7333 10.2131 14.3666 11.1131 14.3666H12.4064C14.2064 14.3666 15.6731 15.8266 15.6731 17.6333H7.84641C7.84641 16.7266 8.21307 15.9133 8.79974 15.3199ZM8.45307 18.2866H15.0464C15.3997 18.2866 15.6797 18.5666 15.6797 18.9133C15.6797 19.2599 15.3997 19.5466 15.0464 19.5466H8.45307C8.10641 19.5466 7.82641 19.2666 7.82641 18.9133C7.82641 18.5599 8.10641 18.2866 8.45307 18.2866ZM7.82641 20.7266V20.2533H15.6797V20.7266C15.6797 21.1599 15.3264 21.5133 14.8864 21.5133H8.61307C8.17974 21.5133 7.82641 21.1599 7.82641 20.7266ZM25.4264 26.7333H9.17974V23.5133H19.5931V13.0599H9.17974V5.2666H19.5864V11.7666H25.4264V26.7333Z" fill="#1A73E8"/>
</g>
<defs>
<clipPath id="clip0_23378_2500">
<rect width="32" height="32" fill="white"/>
</clipPath>
</defs>
</svg>
