<svg width="48" height="48" viewBox="0 0 48 48" fill="none" xmlns="http://www.w3.org/2000/svg">
<g clip-path="url(#clip0_17591_3170)">
<path d="M15.6484 11.82H8.61844L7.63844 7.85999H4.89844V4.85999H9.98844L10.9684 8.81998H15.6484V11.82Z" fill="#1A73E8"/>
<path d="M16.6509 43.1C18.2747 43.1 19.5909 41.7837 19.5909 40.16C19.5909 38.5363 18.2747 37.22 16.6509 37.22C15.0272 37.22 13.7109 38.5363 13.7109 40.16C13.7109 41.7837 15.0272 43.1 16.6509 43.1Z" fill="#1A73E8"/>
<path d="M35.2681 43.1C36.8918 43.1 38.2081 41.7837 38.2081 40.16C38.2081 38.5363 36.8918 37.22 35.2681 37.22C33.6444 37.22 32.3281 38.5363 32.3281 40.16C32.3281 41.7837 33.6444 43.1 35.2681 43.1Z" fill="#1A73E8"/>
<path d="M41.6 34.34H14.85C13.57 34.34 12.3 33.82 11.5 32.81C10.37 31.37 10.34 29.43 11.35 27.98L16.4 20.7L18.86 22.41L13.81 29.69C13.48 30.16 13.65 30.61 13.74 30.78C13.83 30.95 14.1 31.35 14.67 31.35H41.59C42.42 31.35 43.09 32.02 43.09 32.85C43.09 33.68 42.42 34.35 41.59 34.35L41.6 34.34Z" fill="#1A73E8"/>
<path d="M41.1417 26.45H13.7117L11.7617 8.82001H43.1017L41.1417 26.45Z" fill="#1A73E8"/>
</g>
<defs>
<clipPath id="clip0_17591_3170">
<rect width="48" height="48" fill="white"/>
</clipPath>
</defs>
</svg>
