<svg width="48" height="48" viewBox="0 0 48 48" fill="none" xmlns="http://www.w3.org/2000/svg">
<g clip-path="url(#clip0_17591_3312)">
<path d="M35.4781 15.56L37.1181 13.18L32.1781 9.78002L30.5481 12.15C28.9781 11.45 27.2781 10.99 25.4981 10.83V7.90002H27.4281V4.90002H20.5681V7.90002H22.4981V10.83C14.2681 11.58 7.82812 18.51 7.82812 26.93C7.82812 35.87 15.0681 43.11 23.9981 43.11C32.9281 43.11 40.1681 35.87 40.1681 26.93C40.1681 22.49 38.3781 18.47 35.4781 15.56ZM29.3481 34.41L22.4981 27.56V16.66H25.4981V26.31L31.4681 32.29L29.3481 34.41Z" fill="#1A73E8"/>
</g>
<defs>
<clipPath id="clip0_17591_3312">
<rect width="48" height="48" fill="white"/>
</clipPath>
</defs>
</svg>
