<svg width="32" height="32" viewBox="0 0 32 32" fill="none" xmlns="http://www.w3.org/2000/svg">
<g clip-path="url(#clip0_23378_2488)">
<path d="M24.8123 14.3666V16.3666H26.7323V26.7333H15.059V17.6333H18.939V12.2066L22.859 15.6933V5.2266L18.939 8.71327V3.2666H3.26562V17.6333H13.059V28.7333H28.7323V14.3666H24.8123ZM5.26562 5.2666H16.939V15.6333H5.26562V5.2666Z" fill="#1A73E8"/>
<path d="M11.1212 12.165C10.9075 12.165 10.7294 12.2363 10.5781 12.3876C10.4267 12.539 10.3555 12.7171 10.3555 12.9308C10.3555 13.1444 10.4267 13.3314 10.5781 13.4828C10.7294 13.6341 10.9164 13.7054 11.1212 13.7054C11.326 13.7054 11.5129 13.6341 11.6643 13.4828C11.8157 13.3314 11.8869 13.1444 11.8869 12.9308C11.8869 12.7171 11.8157 12.539 11.6643 12.3876C11.5129 12.2363 11.3349 12.165 11.1212 12.165Z" fill="#1A73E8"/>
<path d="M12.0912 7.41034C11.7974 7.25897 11.4679 7.18774 11.094 7.18774C10.5954 7.18774 10.1858 7.3213 9.84746 7.59731C9.50912 7.87333 9.29544 8.20277 9.17969 8.57672L10.2036 9.0041C10.2659 8.79931 10.3817 8.62124 10.533 8.48768C10.6844 8.35413 10.8803 8.2829 11.1118 8.2829C11.3433 8.2829 11.5214 8.34522 11.6549 8.46988C11.7885 8.59453 11.8597 8.75479 11.8597 8.93287C11.8597 9.08423 11.8152 9.22669 11.735 9.34244C11.6549 9.45819 11.5303 9.60065 11.3433 9.76091C11.0406 10.028 10.8269 10.2684 10.7111 10.4732C10.5954 10.678 10.5241 10.9273 10.5241 11.2122V11.506H11.6994V11.3636C11.6994 11.1588 11.735 10.9807 11.8063 10.8472C11.8775 10.7136 12.02 10.5444 12.2248 10.3575C12.483 10.1171 12.6699 9.88556 12.8035 9.66297C12.937 9.44038 12.9994 9.18217 12.9994 8.87054C12.9994 8.55891 12.9192 8.26509 12.7501 8.01579C12.5898 7.75758 12.3583 7.5528 12.0734 7.40143L12.0912 7.41034Z" fill="#1A73E8"/>
<path d="M19.918 21.5466C19.918 22.0867 20.358 22.5267 20.898 22.5267C21.438 22.5267 21.878 22.0867 21.878 21.5466C21.878 21.0066 21.438 20.5667 20.898 20.5667C20.358 20.5667 19.918 21.0066 19.918 21.5466Z" fill="#1A73E8"/>
<path d="M24.1597 22.5267C24.7009 22.5267 25.1397 22.0879 25.1397 21.5466C25.1397 21.0054 24.7009 20.5667 24.1597 20.5667C23.6184 20.5667 23.1797 21.0054 23.1797 21.5466C23.1797 22.0879 23.6184 22.5267 24.1597 22.5267Z" fill="#1A73E8"/>
<path d="M17.6323 22.5267C18.1736 22.5267 18.6123 22.0879 18.6123 21.5466C18.6123 21.0054 18.1736 20.5667 17.6323 20.5667C17.0911 20.5667 16.6523 21.0054 16.6523 21.5466C16.6523 22.0879 17.0911 22.5267 17.6323 22.5267Z" fill="#1A73E8"/>
</g>
<defs>
<clipPath id="clip0_23378_2488">
<rect width="32" height="32" fill="white"/>
</clipPath>
</defs>
</svg>
