<svg width="412" height="386" viewBox="0 0 412 386" fill="none" xmlns="http://www.w3.org/2000/svg">
<g clipPath="url(#clip0_11_1317)">
<path d="M411.689 237.314L370.301 285.376L351.814 216.382L411.689 237.314Z" fill="#E24F83"/>
<path d="M199.449 173.018L173.054 171.986C157.729 171.388 144.141 161.958 138.219 147.81C135.647 141.694 133.705 135.542 133.802 130.959C133.865 128.109 134.716 125.884 136.842 124.786C142.234 121.991 146.705 123.736 150.313 127.446C152.798 130.006 154.873 133.483 156.583 137.098C162.157 148.927 173.089 157.344 185.949 159.708C194.592 161.323 202.382 162.748 202.382 162.748C202.701 162.807 203.007 162.595 203.066 162.276C203.124 161.957 202.912 161.651 202.593 161.593C202.593 161.593 194.803 160.16 186.164 158.553C173.675 156.257 163.058 148.084 157.643 136.599C155.88 132.863 153.718 129.276 151.149 126.631C147.172 122.539 142.238 120.663 136.295 123.743C133.808 125.033 132.702 127.587 132.63 130.933C132.529 135.645 134.492 141.977 137.136 148.265C143.236 162.831 157.228 172.54 173.008 173.155L199.403 174.186C199.618 174.204 199.825 174.102 199.943 173.921C200.06 173.74 200.069 173.51 199.966 173.32C199.863 173.131 199.664 173.013 199.449 173.014V173.018Z" fill="white"/>
<path d="M203.843 162.352C207.656 160.004 212.248 159.111 216.573 160.686C217.768 161.156 218.83 161.91 219.668 162.883C220.088 163.401 220.377 163.96 220.291 164.52C220.206 164.931 219.973 165.296 219.636 165.546C218.876 166.198 218.08 166.09 217.323 165.752C216.373 165.332 215.475 164.589 214.648 164.127C212.326 162.824 209.642 162.632 207.286 163.969C207.095 164.069 206.974 164.264 206.969 164.479C206.965 164.694 207.079 164.894 207.266 165C207.452 165.107 207.682 165.103 207.865 164.99C209.851 163.861 212.115 164.053 214.074 165.151C214.927 165.63 215.872 166.39 216.846 166.825C218.009 167.342 219.21 167.443 220.392 166.445C221.047 165.892 221.363 165.294 221.452 164.699C221.531 164.083 221.406 163.458 221.097 162.919C220.297 161.41 218.283 160.069 216.983 159.594C212.305 157.893 207.345 158.834 203.227 161.361C202.951 161.531 202.864 161.893 203.034 162.169C203.204 162.446 203.566 162.532 203.843 162.362V162.352Z" fill="white"/>
<path d="M207.632 165.183C211.052 166.194 214.875 168.149 215.88 171.786C216.133 172.696 216.351 173.629 216.026 174.547C215.595 175.761 214.271 176.722 213.15 175.791C212.747 175.457 212.58 174.889 212.447 174.3C212.278 173.56 212.183 172.78 211.987 172.185C211.52 170.771 210.45 169.684 209.496 168.584C209.278 168.376 208.938 168.367 208.709 168.563C208.48 168.759 208.437 169.097 208.609 169.344C209.464 170.329 210.454 171.279 210.872 172.544C211.1 173.232 211.18 174.184 211.421 175.014C211.611 175.69 211.919 176.287 212.401 176.688C214.206 178.187 216.439 176.878 217.132 174.93C217.541 173.779 217.322 172.607 217.013 171.467C215.897 167.439 211.744 165.168 207.965 164.057C207.76 163.986 207.534 164.033 207.374 164.179C207.215 164.326 207.15 164.548 207.204 164.758C207.257 164.967 207.422 165.13 207.632 165.181V165.183Z" fill="white"/>
<path d="M208.387 169.107C209.21 171.326 209.787 172.959 208.501 175.216C208.261 175.634 207.924 175.989 207.517 176.247C207.196 176.437 206.831 176.538 206.485 176.327C206.229 176.171 206.192 175.85 206.16 175.527C206.107 175.009 206.147 174.454 206.103 174.055C205.938 172.584 205.244 171.285 204.477 170.046C204.3 169.785 203.95 169.711 203.682 169.876C203.414 170.042 203.325 170.389 203.479 170.663C204.156 171.754 204.792 172.89 204.937 174.184C204.99 174.674 204.925 175.394 205.043 176C205.153 176.57 205.406 177.045 205.875 177.33C206.434 177.673 207.125 177.718 207.724 177.452C208.484 177.144 209.16 176.43 209.521 175.795C211.015 173.175 210.443 171.277 209.489 168.699C209.376 168.394 209.038 168.239 208.734 168.352C208.429 168.465 208.274 168.803 208.387 169.107Z" fill="white"/>
<path d="M310.041 178.346C318.993 162.841 313.681 143.014 298.176 134.062C282.671 125.11 262.845 130.421 253.892 145.927L310.041 178.346Z" fill="#72A1E9"/>
<path d="M152.003 138.393C143.586 123.813 124.943 118.818 110.364 127.235C95.7842 135.653 90.7887 154.295 99.206 168.875L152.003 138.393Z" fill="#E24F83"/>
<path d="M312.3 110.311C312.3 110.311 298.859 115.983 289.853 107.758C280.353 99.0803 285.633 93.0554 289.179 92.6868C299.665 91.6076 312.3 110.311 312.3 110.311Z" fill="white"/>
<path d="M248.929 194.196L234.93 201.549C231.755 203.214 228.916 205.393 226.707 208.121C224.497 210.85 222.76 213.913 221.797 217.334C220.834 220.756 220.484 224.228 220.938 227.651C221.392 231.075 222.413 234.383 224.206 237.383L254.912 288.754L258.252 294.775L270.298 288.094L266.958 282.071L239.632 228.826C239.157 227.898 238.994 226.867 238.924 225.85C238.853 224.834 239.114 223.878 239.44 222.924C239.767 221.97 240.379 221.214 241.031 220.517C241.682 219.82 242.503 219.377 243.373 218.997L257.813 212.571L266.994 208.127L258.104 189.767L248.929 194.196Z" fill="#5068E2"/>
<path d="M273.674 208.436L261.576 231.336C260.4 233.561 259.568 235.931 259.367 238.389C259.165 240.848 259.311 243.316 260.1 245.683C260.888 248.051 262 250.243 263.615 252.052C265.23 253.861 267.082 255.44 269.304 256.491L309.002 275.253L315.107 278.437L321.474 266.222L315.371 263.038L277.255 241.232L277.185 240.719L277.477 240.54L291.323 218.656L296.436 209.83L278.785 199.604L273.674 208.436Z" fill="#5068E2"/>
<path d="M264.994 308.424L263.647 305.065L262.243 300.416L271.541 297.608L272.945 302.257L274.292 308.726L275.269 311.96L262.121 318.443L259.284 320.092L255.992 314.419L258.828 312.772L264.994 308.424Z" fill="#72A1E9"/>
<path d="M259.444 325.018L276.422 316.255C276.923 315.98 277.114 315.355 276.851 314.847C276.589 314.339 275.97 314.133 275.455 314.382L258.477 323.145C257.976 323.42 257.785 324.045 258.047 324.553C258.31 325.061 258.929 325.267 259.444 325.018Z" fill="white"/>
<path d="M262.958 304.969C263.788 304.85 264.575 304.517 265.4 304.386C265.977 304.294 266.37 303.751 266.277 303.174C266.185 302.597 265.642 302.204 265.065 302.296C264.252 302.425 263.475 302.758 262.654 302.878C262.077 302.962 261.677 303.497 261.761 304.075C261.845 304.652 262.381 305.052 262.958 304.968V304.969Z" fill="white"/>
<path d="M264.151 308.659C265.043 308.659 265.939 308.707 266.83 308.676C267.412 308.658 267.868 308.172 267.85 307.591C267.831 307.009 267.345 306.553 266.764 306.571C265.886 306.6 265.006 306.545 264.131 306.554C263.549 306.56 263.083 307.036 263.088 307.617C263.094 308.198 263.57 308.665 264.151 308.659Z" fill="white"/>
<path d="M328.771 282.744L325.444 281.321L321.164 279.026L325.754 270.468L330.035 272.762L335.562 276.385L338.539 277.983L333.823 291.862L332.982 295.031L326.643 293.348L327.485 290.181L328.771 282.744Z" fill="#72A1E9"/>
<path d="M336.582 298.407L342.396 280.205C342.552 279.657 342.244 279.085 341.702 278.912C341.16 278.739 340.578 279.028 340.388 279.565L334.576 297.765C334.398 298.319 334.704 298.912 335.258 299.089C335.812 299.266 336.405 298.961 336.582 298.407Z" fill="white"/>
<path d="M324.882 281.733C325.383 281.063 325.704 280.27 326.195 279.596C326.536 279.124 326.43 278.464 325.958 278.122C325.486 277.781 324.826 277.887 324.485 278.359C324 279.028 323.685 279.811 323.191 280.476C322.954 280.776 322.899 281.182 323.047 281.535C323.195 281.888 323.523 282.132 323.904 282.173C324.284 282.215 324.657 282.046 324.878 281.733H324.882Z" fill="white"/>
<path d="M328.335 283.507C328.96 282.87 329.635 282.277 330.235 281.626C330.633 281.202 330.613 280.535 330.189 280.137C329.765 279.739 329.098 279.76 328.7 280.184C328.1 280.824 327.436 281.407 326.825 282.034C326.547 282.3 326.436 282.696 326.535 283.067C326.634 283.438 326.928 283.726 327.301 283.818C327.674 283.909 328.068 283.79 328.328 283.507H328.335Z" fill="white"/>
<path d="M102.498 307.827L105.871 312.336L108.599 315.286L102.7 320.743L99.9713 317.792L92.2877 311.053L89.5156 308.057L95.8578 297.402L99.2493 292.515L109.027 299.302L105.633 304.188L102.498 307.827Z" fill="#E24F83"/>
<path d="M102.951 324.819L87.7382 311.053C87.33 310.704 86.7184 310.744 86.3583 311.142C85.9981 311.54 86.0203 312.153 86.4082 312.524L101.623 326.287C102.029 326.655 102.655 326.624 103.023 326.218C103.39 325.813 103.359 325.186 102.953 324.819H102.951Z" fill="white"/>
<path d="M107.688 302.38C106.752 301.917 105.95 301.217 105.028 300.746C104.541 300.498 103.945 300.691 103.696 301.178C103.448 301.664 103.641 302.261 104.128 302.509C105.063 302.986 105.872 303.689 106.818 304.155C107.138 304.335 107.532 304.324 107.841 304.125C108.149 303.926 108.323 303.573 108.291 303.207C108.259 302.841 108.027 302.523 107.688 302.38Z" fill="white"/>
<path d="M104.521 306.221C103.472 305.869 102.395 305.59 101.354 305.217C101.018 305.087 100.639 305.148 100.362 305.378C100.085 305.608 99.9543 305.97 100.021 306.323C100.088 306.677 100.341 306.966 100.683 307.079C101.738 307.459 102.828 307.743 103.89 308.098C104.409 308.272 104.97 307.993 105.144 307.475C105.318 306.956 105.039 306.395 104.521 306.221Z" fill="white"/>
<path d="M216.016 276.976L220.904 274.181L224.167 271.836L228.86 278.361L225.595 280.705L217.965 287.505L214.651 289.888L204.855 282.288L200.42 278.319L208.355 269.452L212.789 273.419L216.016 276.976Z" fill="#E24F83"/>
<path d="M232.96 278.604L217.428 292.014C217.013 292.372 216.968 292.999 217.326 293.413C217.684 293.828 218.311 293.873 218.725 293.515L234.25 280.101C234.531 279.874 234.665 279.512 234.601 279.156C234.537 278.801 234.284 278.509 233.942 278.394C233.6 278.279 233.222 278.359 232.956 278.604H232.96Z" fill="white"/>
<path d="M211.233 271.176C210.663 272.05 209.865 272.759 209.282 273.622C208.975 274.074 209.094 274.69 209.547 274.996C209.999 275.303 210.615 275.184 210.921 274.731C211.51 273.863 212.308 273.147 212.886 272.261C213.097 271.966 213.13 271.579 212.971 271.252C212.812 270.926 212.488 270.713 212.125 270.696C211.763 270.68 211.42 270.863 211.233 271.174V271.176Z" fill="white"/>
<path d="M214.648 274.769C214.172 275.767 213.763 276.802 213.265 277.79C213.018 278.278 213.213 278.874 213.701 279.121C214.189 279.368 214.785 279.173 215.032 278.685C215.538 277.686 215.954 276.637 216.436 275.626C216.653 275.136 216.441 274.563 215.958 274.331C215.475 274.099 214.895 274.293 214.648 274.769Z" fill="white"/>
<path d="M253.702 191.297L278.717 223.969L291.213 217.526L301.259 203.067L261.264 188.369L253.702 191.297Z" fill="white"/>
<path d="M268.639 170.282L258.569 180.696C258.392 180.875 258.138 180.954 257.891 180.909C257.644 180.863 257.435 180.698 257.334 180.468L250.494 164.427C250.342 164.172 250.352 163.854 250.519 163.609C250.685 163.365 250.979 163.24 251.27 163.288C251.562 163.336 251.8 163.549 251.879 163.834L258.28 178.832L268.396 168.363C268.578 168.18 268.841 168.102 269.094 168.157C269.347 168.211 269.555 168.391 269.646 168.633L275.346 184.549L286.542 173.216C286.716 173.046 286.96 172.968 287.2 173.008C287.44 173.048 287.646 173.2 287.755 173.417L296.457 191.424C296.576 191.785 296.408 192.179 296.065 192.345C295.722 192.511 295.31 192.397 295.1 192.079L286.864 175.034L275.576 186.461C275.392 186.641 275.13 186.716 274.879 186.661C274.627 186.605 274.421 186.426 274.331 186.185L268.639 170.282Z" fill="white"/>
<path d="M124.425 168.058C126.27 165.898 127.583 163.074 127.775 159.438C127.796 159.051 128.126 158.754 128.512 158.774C128.899 158.795 129.196 159.125 129.175 159.512C128.957 163.669 127.403 166.857 125.246 169.259C127.192 172.656 126.51 176.289 124.771 179.412C122.998 182.599 120.129 185.236 118.026 186.488C117.059 187.058 116.031 187.299 115.022 187.696C114.662 187.838 114.254 187.661 114.112 187.301C113.97 186.941 114.147 186.533 114.507 186.391C115.444 186.022 116.407 185.821 117.31 185.281C119.254 184.124 121.906 181.671 123.546 178.73C124.988 176.137 125.651 173.14 124.216 170.306C122.367 171.991 120.22 173.317 117.884 174.214C116.77 174.653 115.378 175.183 114.057 175.23C112.567 175.284 111.154 174.776 110.206 173.03C109.611 171.932 109.805 170.767 110.396 169.715C111.167 168.333 112.626 167.172 113.35 166.764C116.63 164.915 121.579 164.604 124.431 168.058H124.425ZM123.454 169.09C121.085 166.05 116.827 166.411 114.034 167.986C113.441 168.32 112.246 169.268 111.616 170.399C111.268 171.022 111.085 171.71 111.439 172.361C112.21 173.781 113.445 173.961 114.669 173.758C115.619 173.6 116.569 173.222 117.371 172.909C119.627 172.045 121.693 170.748 123.451 169.09H123.454Z" fill="white"/>
<path d="M254.048 59.2297C253.782 55.2568 252.76 50.7196 250.206 47.5504C249.773 47.0146 248.863 46.0152 247.941 45.5858C247.124 45.2058 246.3 45.2058 245.631 45.9354C245.234 46.3813 244.99 46.9426 244.935 47.5371C244.872 48.3162 244.95 49.1003 245.167 49.8513C245.773 52.1617 246.638 54.3847 247.185 56.7103C247.237 56.9319 247.403 57.109 247.621 57.1749C247.839 57.2407 248.076 57.1853 248.241 57.0295C248.407 56.8737 248.478 56.6412 248.426 56.4196C247.877 54.0826 247.008 51.8482 246.4 49.5283C246.258 49.0251 246.183 48.5048 246.18 47.9817C246.157 47.555 246.292 47.135 246.56 46.8018C246.799 46.5415 247.103 46.6023 247.398 46.741C248.143 47.0868 248.859 47.9171 249.207 48.3503C251.603 51.3219 252.52 55.5893 252.769 59.3152C252.805 59.6564 253.105 59.9081 253.447 59.8851C253.789 59.8621 254.052 59.5726 254.042 59.2297H254.048Z" fill="white"/>
<path d="M251.321 61.5572C250.821 60.3545 250.329 59.1461 249.634 58.0422C248.902 56.9121 247.799 56.0728 246.514 55.6691C245.631 55.4069 244.745 55.4354 244.019 55.8173C243.246 56.222 242.617 57.0352 242.414 58.4355C242.235 59.6534 242.649 60.9226 243.396 62.0816C244.454 63.6515 245.879 64.9396 247.548 65.8341C248.275 66.2087 249.068 66.4408 249.883 66.5181C250.591 66.5561 251.237 66.3813 251.673 65.9234C251.842 65.7605 251.908 65.5175 251.845 65.2911C251.782 65.0646 251.599 64.8913 251.37 64.84C251.14 64.7887 250.901 64.8677 250.747 65.0456C250.557 65.2451 250.261 65.2622 249.955 65.2451C249.317 65.1827 248.697 64.9975 248.129 64.6998C246.657 63.9114 245.4 62.7752 244.468 61.39C243.898 60.5065 243.539 59.5489 243.674 58.6198C243.801 57.7439 244.13 57.1986 244.612 56.944C245.061 56.7103 245.608 56.7293 246.153 56.8908C247.142 57.2029 247.991 57.8499 248.555 58.7205C249.212 59.7655 249.672 60.9093 250.145 62.0455C250.28 62.3702 250.652 62.5242 250.977 62.3894C251.302 62.2545 251.456 61.8819 251.321 61.5572Z" fill="white"/>
<path d="M242.886 60.1646C242.322 60.06 241.748 60.0236 241.176 60.0563C239.188 60.2691 238.364 62.4275 238.789 64.147C239.126 65.515 241.027 67.7076 243.034 68.6785C244.529 69.4005 246.053 69.4385 247.123 68.327C247.366 68.0725 247.356 67.6693 247.102 67.4264C246.847 67.1835 246.444 67.1928 246.201 67.4473C245.521 68.1598 244.541 67.9907 243.589 67.5309C241.93 66.7291 240.305 64.9716 240.026 63.8411C239.772 62.8151 240.125 61.4509 241.311 61.3236C241.782 61.3014 242.254 61.3365 242.717 61.4281C243.058 61.4621 243.365 61.2207 243.412 60.8812C243.46 60.5418 243.231 60.2255 242.893 60.1646H242.886Z" fill="white"/>
<path d="M245.071 76.7882C247.622 95.1403 252.606 114.114 257.934 131.936C258.032 132.266 258.38 132.453 258.71 132.355C259.04 132.256 259.227 131.908 259.129 131.578C253.82 113.815 248.85 94.9085 246.306 76.6153C246.258 76.2742 245.943 76.0365 245.602 76.0842C245.261 76.132 245.023 76.4471 245.071 76.7882Z" fill="white"/>
<path d="M252.982 59.7142C260.403 79.9055 268.562 104.321 274.589 127.28C274.676 127.613 275.018 127.812 275.351 127.725C275.684 127.637 275.883 127.296 275.795 126.963C269.753 103.973 261.587 79.5084 254.152 59.2829C254.033 58.9597 253.675 58.7943 253.352 58.9134C253.028 59.0325 252.863 59.391 252.982 59.7142Z" fill="white"/>
<path d="M290.598 106.81C286.3 111.499 285.521 115.913 286.798 119.196C288.093 122.521 291.531 124.761 295.83 125.022C297.278 125.109 298.827 124.74 300.185 124.275C303.368 123.19 305.37 121.14 306.877 118.653C308.321 116.268 309.299 113.473 310.468 110.785C310.608 110.462 310.46 110.087 310.137 109.947C309.815 109.807 309.439 109.955 309.299 110.278C308.159 112.911 307.209 115.655 305.786 117.993C304.43 120.232 302.638 122.092 299.773 123.07C298.566 123.483 297.193 123.83 295.908 123.75C292.156 123.522 289.116 121.634 287.985 118.733C286.845 115.789 287.681 111.875 291.534 107.673C291.773 107.414 291.756 107.01 291.496 106.772C291.237 106.534 290.834 106.551 290.596 106.81H290.598Z" fill="white"/>
<path d="M128.997 102.697C131.6 108.31 130.004 115.348 123.922 115.779C122.906 115.851 121.821 115.528 120.867 115.148C118.566 114.23 117.136 112.488 116.047 110.398C114.907 108.194 114.136 105.61 113.21 103.129C113.095 102.828 112.759 102.676 112.457 102.788C112.155 102.901 112 103.236 112.11 103.539C113.06 106.066 113.841 108.696 115.006 110.938C116.226 113.288 117.856 115.22 120.432 116.248C121.547 116.693 122.819 117.042 124.006 116.959C130.914 116.469 133.02 108.599 130.061 102.213C129.979 102.013 129.794 101.875 129.579 101.853C129.365 101.83 129.155 101.928 129.033 102.106C128.912 102.285 128.898 102.515 128.997 102.707V102.697Z" fill="white"/>
<path d="M112.552 102.671C111.203 102.618 109.689 102.367 108.712 101.364C107.327 99.9387 107.272 97.1837 109.296 96.3553C110.213 95.9753 111.196 96.1995 112.146 96.2603C112.459 96.2656 112.721 96.024 112.741 95.7113C112.762 95.3986 112.533 95.1251 112.222 95.0899C111.093 95.0158 109.942 94.8239 108.847 95.2799C106.045 96.4199 105.95 100.22 107.867 102.192C109.052 103.41 110.863 103.788 112.503 103.853C112.718 103.87 112.925 103.768 113.042 103.587C113.16 103.407 113.169 103.176 113.066 102.987C112.962 102.797 112.764 102.68 112.548 102.68L112.552 102.671Z" fill="white"/>
<path d="M312.683 110.282C312.683 110.282 303.335 101.981 300.713 99.0602C292.943 90.4 307.763 82.6879 311.75 94.4774C313.956 101.006 312.901 106.153 312.681 110.282H312.683Z" fill="white"/>
<path d="M306.281 117.784C310.71 115.461 316.172 112.022 318.201 107.435C319.199 105.183 318.473 101.925 315.306 103.306C312.822 104.387 311.555 106.768 310.377 108.983C309.131 111.324 306.281 117.784 306.281 117.784Z" fill="white"/>
<path d="M329.943 205.682C336.949 196.5 339.48 183.118 337.329 171.649C334.963 159.003 326.708 147.238 314.688 143.307C308.966 141.436 302.817 143.752 300.606 149.376C298.394 155 301.556 160.426 306.585 163.669C314.255 168.609 318.139 170.734 320.601 177.139C323.388 184.387 323.922 192.686 320.462 199.572C320.348 199.78 320.357 200.033 320.485 200.233C320.613 200.432 320.839 200.546 321.076 200.53C321.312 200.513 321.521 200.369 321.62 200.153C325.241 192.947 324.726 184.26 321.81 176.673C319.246 170.006 315.272 167.73 307.286 162.581C302.785 159.679 299.844 154.853 301.81 149.851C303.767 144.877 309.22 142.883 314.286 144.531C325.876 148.319 333.776 159.693 336.056 171.881C338.146 183.004 335.697 195.985 328.91 204.892C328.694 205.176 328.749 205.582 329.033 205.798C329.318 206.014 329.723 205.959 329.94 205.675L329.943 205.682Z" fill="white"/>
<path d="M315.709 208.274C314.89 208.214 314.041 208.164 313.22 208.024C311.921 207.799 310.697 207.347 309.737 206.363C308.238 204.822 308.882 202.126 310.634 201.157C311.66 200.587 313.043 200.665 314.144 200.806C315.915 201.036 317.66 201.435 319.355 201.997C319.685 202.117 319.859 202.479 319.747 202.813C319.634 203.146 319.277 203.328 318.941 203.224C317.327 202.687 315.665 202.306 313.978 202.084C313.129 201.976 312.054 201.847 311.261 202.286C310.193 202.877 309.741 204.512 310.665 205.453C311.425 206.234 312.411 206.563 313.441 206.741C314.592 206.931 315.802 206.95 316.893 207.072C317.255 207.108 317.527 207.42 317.512 207.784C317.504 207.919 317.461 208.05 317.389 208.164C317.324 208.265 317.166 208.417 317.108 208.51C316.995 208.689 316.878 208.862 316.756 209.033C316.357 209.593 315.925 210.129 315.464 210.64C315.141 210.999 314.807 211.349 314.484 211.706C313.817 212.443 312.707 213.765 312.232 215.101C311.974 215.831 311.894 216.564 312.344 217.155C312.497 217.318 312.712 217.407 312.935 217.4C313.246 217.419 313.558 217.374 313.851 217.267C314.586 216.994 315.246 216.431 315.865 215.81C316.553 215.122 317.195 214.354 317.793 213.745C318.192 213.342 318.553 212.907 318.951 212.494C318.975 212.466 319.243 212.147 319.31 212.09C319.495 211.915 319.768 211.87 319.999 211.976C320.142 212.033 320.263 212.133 320.345 212.263C320.445 212.414 320.481 212.599 320.448 212.777C320.403 212.97 320.303 213.147 320.161 213.285C320.018 213.404 319.881 213.531 319.752 213.665C319.418 214.136 319.118 214.645 318.829 215.149C318.365 215.958 317.774 216.859 317.436 217.788C317.149 218.584 317.056 219.412 317.503 220.233C317.595 220.396 317.778 220.485 317.963 220.457C318.181 220.439 318.395 220.384 318.595 220.296C319.836 219.796 320.607 218.396 321.343 217.309C321.666 216.85 321.961 216.372 322.226 215.876C322.325 215.686 322.416 215.481 322.509 215.287C322.564 215.185 322.699 214.907 322.728 214.875C322.898 214.626 323.225 214.538 323.497 214.67C323.818 214.791 323.981 215.15 323.862 215.472C323.469 216.802 322.756 218.322 322.454 219.806C322.194 221.099 322.264 222.374 323.341 223.44C323.86 223.951 324.481 223.75 325.032 223.376C325.739 222.864 326.323 222.202 326.742 221.438C328.323 218.483 329.057 214.742 327.977 211.506C327.802 210.878 327.593 210.259 327.352 209.652C327.253 209.365 327.08 209.11 326.851 208.911C326.651 208.785 326.536 208.561 326.55 208.325C326.564 208.09 326.704 207.881 326.917 207.779C327.129 207.677 327.381 207.699 327.573 207.836C328.003 208.17 328.335 208.614 328.534 209.122C328.792 209.769 329.017 210.428 329.207 211.098C330.394 214.666 329.627 218.793 327.877 222.049C327.377 222.98 326.302 224.263 325.16 224.785C324.233 225.205 323.26 225.186 322.429 224.364C321.071 223.034 320.856 221.457 321.13 219.838C320.56 220.548 319.885 221.168 319.076 221.498C318.111 221.878 316.965 221.937 316.368 220.86C315.717 219.682 315.798 218.491 316.216 217.345C316.235 217.296 316.254 217.242 316.275 217.191C315.704 217.743 315.034 218.183 314.299 218.487C313.729 218.698 313.113 218.756 312.513 218.654C312.039 218.575 311.611 218.324 311.313 217.947C310.591 216.997 310.596 215.838 311.01 214.674C311.544 213.171 312.772 211.672 313.52 210.843C313.845 210.486 314.178 210.136 314.501 209.777C314.929 209.303 315.33 208.805 315.7 208.284L315.709 208.274Z" fill="white"/>
<path d="M239.897 64.774C239.443 64.8002 239.009 64.9714 238.66 65.2623C237.159 66.5923 237.491 68.6424 238.549 70.1035C239.446 71.3442 241.078 72.2448 242.6 72.2296C243.25 72.2296 243.833 72.013 244.462 71.8914C244.808 71.8243 245.033 71.49 244.966 71.1447C244.899 70.7995 244.564 70.5741 244.219 70.6412C243.666 70.7476 243.157 70.949 242.585 70.9547C241.445 70.9661 240.248 70.2802 239.581 69.3568C238.914 68.4334 238.531 67.0768 239.505 66.2161C239.639 66.1109 239.803 66.0515 239.973 66.047C240.208 66.0445 240.423 65.9125 240.532 65.7036C240.641 65.4947 240.626 65.2429 240.493 65.0484C240.36 64.854 240.131 64.7485 239.897 64.774Z" fill="white"/>
<path d="M322.828 93.905C324.994 91.4749 327.628 89.3032 329.457 86.5976C329.655 86.3064 329.579 85.9105 329.287 85.7132C328.996 85.5159 328.6 85.592 328.403 85.8832C326.604 88.5432 324.006 90.6693 321.876 93.0576C321.642 93.32 321.665 93.7223 321.928 93.9563C322.19 94.1903 322.592 94.1674 322.826 93.905H322.828Z" fill="white"/>
<path d="M327.826 102.441C332.747 101.194 337.748 99.5642 342.726 98.6408C342.96 98.6094 343.157 98.452 343.239 98.2313C343.322 98.0106 343.276 97.7624 343.12 97.5857C342.964 97.409 342.724 97.3326 342.494 97.3868C337.49 98.3121 332.461 99.948 327.515 101.2C327.188 101.298 326.996 101.636 327.079 101.968C327.162 102.299 327.492 102.506 327.826 102.437V102.441Z" fill="white"/>
<path d="M326.792 111.663C330.178 112.497 333.721 113.624 337.035 114.684C337.366 114.775 337.708 114.587 337.811 114.26C337.913 113.934 337.738 113.584 337.415 113.47C334.077 112.402 330.503 111.268 327.09 110.43C326.749 110.346 326.404 110.554 326.319 110.896C326.235 111.237 326.443 111.583 326.785 111.667L326.792 111.663Z" fill="white"/>
<path d="M120.46 243.486C116.723 241.571 94.96 229.616 86.2352 206.875C83.3168 199.275 83.7557 193.437 85.7621 188.998C90.438 178.653 103.763 175.864 103.763 175.864C104.057 175.84 104.324 176.039 104.385 176.328C104.445 176.617 104.282 176.907 104.002 177.004C104.002 177.004 91.2816 179.62 86.8299 189.471C84.9299 193.686 84.5594 199.222 87.3277 206.442C96.7327 230.946 121.513 242.7 121.513 242.7C121.658 242.768 121.769 242.893 121.82 243.046C121.869 243.198 121.855 243.364 121.78 243.505L99.9304 284.355L114.464 293.54L134.771 259.697C140.015 250.961 140.412 240.146 135.821 231.049L119.823 199.349C119.72 199.141 119.747 198.892 119.894 198.711L127.448 189.526C127.658 189.293 128.015 189.266 128.258 189.465C128.501 189.665 128.543 190.02 128.354 190.271L121.053 199.161L136.878 230.511C141.651 239.967 141.238 251.211 135.785 260.292L115.163 294.653C115.08 294.789 114.948 294.886 114.794 294.923C114.641 294.959 114.479 294.931 114.346 294.847L98.8436 285.051C98.5837 284.886 98.495 284.549 98.6403 284.277L120.46 243.486Z" fill="white"/>
<path d="M203.745 262.1L164.907 217.281C156.917 208.06 151.987 195.896 146.287 186.491C142.57 180.364 138.533 175.412 133.01 173.338C132.721 173.214 132.58 172.885 132.69 172.591C132.801 172.297 133.123 172.142 133.422 172.239C139.171 174.398 143.422 179.505 147.292 185.883C152.965 195.237 157.846 207.342 165.792 216.511L204.945 261.693C205.127 261.904 205.137 262.213 204.968 262.434L195.993 274.161C195.895 274.286 195.751 274.368 195.594 274.387C195.434 274.405 195.275 274.358 195.151 274.256L146.196 233.913C145.945 233.707 145.91 233.337 146.116 233.087C146.322 232.837 146.692 232.801 146.942 233.007L195.428 272.972L203.745 262.1Z" fill="white"/>
<path d="M109.981 92.721C109.981 95.7002 119.4 102.844 129.542 102.308C138.681 101.826 140.102 87.0609 129.542 84.437C117.07 81.3381 109.981 92.721 109.981 92.721Z" fill="white"/>
<path d="M113.023 95.6817C112.094 95.6615 111.168 95.763 110.266 95.9838C107.923 96.5215 106.105 98.8338 107.965 101.114C109.485 102.98 115.472 103.683 113.298 107.367C111.805 109.896 108.138 109.611 105.729 109.046C100.002 107.694 95.9037 102.849 95.043 97.2929C94.1823 91.7373 98.9779 85.9993 104.383 84.8023C109.038 83.7725 115.008 85.3989 116.217 90.489L113.023 95.6817Z" fill="white"/>
<path d="M100.44 101.766C95.0226 102.068 90.4132 103.126 86.2712 106.755C81.582 110.867 80.9075 118.565 86.8621 121.974C91.1694 124.444 97.2513 123.304 101.112 120.496C102.457 119.519 103.841 118.463 104.81 117.131C105.117 116.696 105.388 116.236 105.619 115.755C105.731 115.529 105.986 114.822 105.938 115.069C105.587 116.884 105.423 118.814 106.672 120.376C109.375 123.758 114.735 121.516 115.949 118.106C117.424 113.967 115.32 110.572 113.608 107.015L100.44 101.766Z" fill="white"/>
<path d="M126.298 127.518C126.304 127.697 126.299 127.877 126.285 128.056C126.199 128.949 125.841 129.794 125.261 130.478C124.825 130.99 124.192 131.293 123.52 131.31C121.977 131.329 121.02 130.429 120.48 129.154C119.771 127.463 119.859 125.075 120.182 123.747C120.222 123.534 120.377 123.361 120.584 123.296C120.79 123.232 121.016 123.286 121.17 123.438C121.325 123.59 121.383 123.814 121.322 124.022C121.042 125.162 120.942 127.239 121.561 128.7C121.909 129.526 122.5 130.148 123.499 130.136C123.967 130.136 124.318 129.825 124.576 129.448C124.874 129.001 125.056 128.486 125.108 127.951C125.132 127.56 125.112 127.168 125.05 126.781C125.031 126.629 124.89 126.353 124.86 126.192C124.828 126.057 124.832 125.916 124.873 125.783C124.92 125.631 125.025 125.504 125.166 125.428C125.328 125.336 125.523 125.321 125.698 125.386C125.896 125.461 126.076 125.577 126.226 125.726C126.476 125.962 126.733 126.317 126.908 126.486C127.446 126.996 127.995 127.514 128.707 127.765C129.194 127.94 129.719 127.98 130.227 127.879C130.457 127.84 130.665 127.719 130.814 127.539C130.959 127.338 130.981 127.053 130.894 126.676C130.655 125.648 130.028 125.175 129.401 124.417C129.263 124.256 129.222 124.033 129.295 123.834C129.368 123.635 129.542 123.49 129.752 123.456C129.961 123.422 130.173 123.503 130.305 123.669C131.065 124.577 131.751 125.179 132.038 126.41C132.228 127.206 132.072 127.797 131.766 128.223C131.455 128.632 131.006 128.915 130.503 129.019C129.773 129.172 129.016 129.122 128.314 128.873C127.529 128.597 126.891 128.077 126.29 127.522L126.298 127.518Z" fill="white"/>
<path d="M39.2705 101.49C39.2705 101.49 43.2776 114.41 47.0966 126.719C51.7764 141.802 64.7767 152.805 80.4264 154.926C87.1828 155.853 93.8081 156.112 98.332 154.793C101.545 153.858 103.726 152.133 104.328 149.391C105.765 142.853 102.677 138.573 97.6955 135.793C94.475 133.996 90.4508 132.835 86.3867 132.098C73.892 129.84 63.2505 121.701 57.8012 110.232C54.0012 102.302 50.6059 95.1501 50.6059 95.1501C50.5199 94.9543 50.3342 94.8207 50.1212 94.8015C49.9082 94.7822 49.7015 94.8803 49.5818 95.0576C49.4621 95.2349 49.4483 95.4632 49.5457 95.6536C49.5457 95.6536 52.9448 102.807 56.741 110.738C62.3537 122.546 73.3116 130.928 86.1777 133.253C90.1107 133.965 94.0076 135.079 97.1236 136.817C101.636 139.34 104.486 143.207 103.183 149.141C102.67 151.472 100.743 152.87 98.0052 153.666C93.6029 154.947 87.1581 154.666 80.5841 153.763C65.3866 151.703 52.762 141.019 48.2176 126.371C44.3986 114.063 40.3915 101.143 40.3915 101.143C40.3342 100.937 40.1694 100.778 39.9613 100.729C39.7531 100.679 39.5347 100.747 39.391 100.906C39.2473 101.064 39.2011 101.288 39.2705 101.49Z" fill="white"/>
<path d="M38.8674 99.9488C34.4974 100.931 29.8652 100.285 26.278 97.3895C25.3031 96.561 24.5452 95.507 24.0702 94.3191C23.8422 93.694 23.7491 93.0708 24.0113 92.5673C24.2241 92.2061 24.5622 91.9356 24.9613 91.8073C25.8999 91.4425 26.6086 91.8073 27.2147 92.364C27.9747 93.067 28.5884 94.0626 29.2173 94.7675C30.9919 96.753 33.4695 97.8075 36.1333 97.3078C36.4445 97.2405 36.6454 96.9375 36.5861 96.6247C36.5269 96.3118 36.2291 96.1033 35.9148 96.1545C33.669 96.5763 31.5904 95.6605 30.0932 93.9866C29.4415 93.257 28.7955 92.2329 28.0146 91.5033C27.0836 90.6369 25.9797 90.1524 24.5376 90.7129C23.7377 91.0245 23.2456 91.4881 22.9682 92.022C22.6939 92.5801 22.6086 93.2123 22.725 93.8232C22.9929 95.5085 24.4616 97.4332 25.5389 98.3015C29.4111 101.427 34.4081 102.153 39.1239 101.091C39.4115 100.996 39.58 100.698 39.513 100.403C39.4461 100.108 39.1657 99.9121 38.8655 99.9507L38.8674 99.9488Z" fill="white"/>
<path d="M36.2096 96.0388C33.3064 93.9754 30.3196 90.8841 30.5476 87.1088C30.6046 86.1683 30.7015 85.2088 31.3076 84.4488C32.1094 83.4399 33.6731 82.9611 34.4312 84.2056C34.7048 84.6521 34.6763 85.243 34.6212 85.8434C34.5414 86.6034 34.3761 87.3634 34.3704 87.9942C34.3533 89.4819 35.0126 90.8575 35.5579 92.2065C35.6154 92.4271 35.7954 92.5945 36.0197 92.6358C36.2439 92.6771 36.4718 92.5849 36.6041 92.3992C36.7364 92.2135 36.7493 91.968 36.6371 91.7695C36.1488 90.5611 35.5199 89.3413 35.5332 88.0094C35.5332 87.2836 35.7745 86.3564 35.8163 85.4957C35.8486 84.7927 35.7574 84.1296 35.4363 83.5957C34.2146 81.5912 31.68 82.0966 30.3918 83.7211C29.6318 84.6711 29.4418 85.8567 29.381 87.0385C29.1264 91.209 32.3203 94.7031 35.5332 96.9869C35.7012 97.1345 35.9386 97.1738 36.1453 97.0882C36.352 97.0026 36.4921 96.807 36.5065 96.5837C36.521 96.3605 36.4073 96.1484 36.2134 96.0369L36.2096 96.0388Z" fill="white"/>
<path d="M36.7692 92.0746C36.7122 89.7091 36.6951 87.9782 38.6426 86.2606C39.0046 85.9406 39.4399 85.7148 39.9099 85.6032C40.2747 85.5272 40.6528 85.55 40.9112 85.8616C41.1012 86.0915 41.0328 86.4088 40.9587 86.7242C40.8409 87.2315 40.6224 87.7445 40.535 88.1359C40.2139 89.5799 40.4476 91.0353 40.7725 92.4565C40.8663 92.7462 41.166 92.9161 41.4627 92.8479C41.7594 92.7796 41.9548 92.4959 41.9125 92.1943C41.6256 90.9441 41.3919 89.6635 41.675 88.3943C41.7833 87.9117 42.0778 87.2543 42.1633 86.6406C42.2431 86.0706 42.1633 85.5348 41.808 85.1206C41.3903 84.6156 40.7509 84.3484 40.098 84.4062C39.281 84.4499 38.4089 84.9059 37.8617 85.3885C35.5969 87.3854 35.5228 89.3652 35.5817 92.1126C35.5896 92.4369 35.8588 92.6933 36.1831 92.6855C36.5073 92.6776 36.7638 92.4084 36.7559 92.0841L36.7692 92.0746Z" fill="white"/>
<path d="M92.7416 80.3087L85.0865 73.9931C84.809 73.7638 84.3981 73.8029 84.1688 74.0805C83.9396 74.358 83.9787 74.7689 84.2562 74.9982L91.917 81.3119C92.0954 81.4704 92.3462 81.5188 92.5707 81.438C92.7953 81.3572 92.9577 81.1602 92.9941 80.9243C93.0306 80.6885 92.9352 80.4516 92.7454 80.3068L92.7416 80.3087Z" fill="white"/>
<path d="M102.714 73.0667L95.0555 52.8925C94.9275 52.5557 94.5506 52.3864 94.2138 52.5144C93.877 52.6424 93.7077 53.0193 93.8357 53.3561L101.497 73.5284C101.633 73.8511 102 74.0082 102.328 73.884C102.655 73.7598 102.826 73.3988 102.714 73.0667Z" fill="white"/>
<path d="M117.123 70.9819L120.098 62.7587C120.184 62.5382 120.143 62.2884 119.992 62.1063C119.841 61.9242 119.603 61.8382 119.371 61.8818C119.138 61.9253 118.947 62.0915 118.872 62.316L115.901 70.5392C115.815 70.7597 115.855 71.0094 116.007 71.1916C116.158 71.3737 116.396 71.4597 116.628 71.4161C116.861 71.3725 117.051 71.2063 117.126 70.9819H117.123Z" fill="white"/>
<path d="M61.1546 209.136C19.8847 228.864 4.62202 274.055 11.6387 310.233C15.1556 328.378 24.2737 344.253 38.4895 353.553C52.7053 362.854 72.0321 365.603 96.0044 357.41C126.135 347.114 146.493 318.806 165.176 293.029C165.396 292.724 165.328 292.299 165.024 292.079C164.719 291.858 164.294 291.926 164.074 292.231C145.553 317.784 125.434 345.917 95.5636 356.124C72.0872 364.146 53.1632 361.516 39.2343 352.413C25.3054 343.31 16.4191 327.744 12.9725 309.975C6.06222 274.331 21.0817 229.795 61.7417 210.363C62.0807 210.201 62.224 209.795 62.0619 209.456C61.8997 209.117 61.4935 208.974 61.1546 209.136Z" fill="white"/>
<path d="M176.95 139.768C221.284 131.045 270.107 103.189 292.641 63.388C297.436 54.9159 302.623 42.564 303.777 30.727C304.554 22.747 303.494 14.9893 299.304 8.78199C296.486 4.60199 292.137 2.29729 287.269 1.26939C280.106 -0.250615 271.819 1.02429 265.83 3.05919C247.172 9.39759 227.1 27.421 222.472 47.5667C222.391 47.9177 222.61 48.2677 222.961 48.3485C223.312 48.4293 223.662 48.2103 223.743 47.8593C228.276 28.1126 247.97 10.492 266.25 4.28279C272.045 2.31439 280.067 1.06799 287 2.53289C291.533 3.48289 295.601 5.61469 298.223 9.50209C302.247 15.4643 303.226 22.9199 302.479 30.5921C301.339 42.2429 296.228 54.3972 291.508 62.7363C269.149 102.243 220.684 129.837 176.699 138.489C176.353 138.565 176.131 138.904 176.199 139.251C176.267 139.599 176.601 139.828 176.95 139.768Z" fill="white"/>
<path d="M354.263 164.8C373.388 153.571 397.328 168.483 398.791 189.753C400.216 210.497 386.821 226.111 372.09 238.773C354.411 253.973 329.564 259.118 307.933 265.907C267.018 278.749 216.653 299.727 195.084 339.861C189.863 349.579 191.108 360.732 197.307 369.533C203.059 377.703 213.077 383.844 226.165 384.885C245.583 386.432 271.816 376.704 300.677 345.38C300.881 345.114 300.849 344.736 300.603 344.507C300.357 344.279 299.978 344.274 299.727 344.497C271.253 375.4 245.432 385.113 226.275 383.585C213.638 382.58 203.936 376.671 198.379 368.784C192.466 360.386 191.26 349.75 196.24 340.474C217.651 300.622 267.714 279.897 308.33 267.148C330.125 260.308 355.135 255.069 372.947 239.757C387.978 226.837 401.554 210.839 400.098 189.662C398.578 167.468 373.561 151.96 353.611 163.677C353.399 163.79 353.266 164.009 353.264 164.249C353.262 164.488 353.392 164.71 353.602 164.825C353.813 164.94 354.069 164.931 354.27 164.8H354.263Z" fill="white"/>
<path d="M55.6254 280.474C55.5973 279.557 55.4195 278.65 55.0991 277.791C54.702 276.624 54.1871 275.535 53.8755 274.665C53.6494 274.031 53.5316 273.487 53.5696 273.079C53.5875 272.681 53.7889 272.314 54.1149 272.085C54.4617 271.865 54.8695 271.76 55.2796 271.787C55.8591 271.787 56.6951 271.95 57.8598 272.309C58.9343 272.611 59.9797 273.009 60.9834 273.497C61.1921 273.601 61.3292 273.809 61.3431 274.042C61.3569 274.275 61.2454 274.498 61.0505 274.627C60.8556 274.755 60.6069 274.77 60.3982 274.665C59.4606 274.212 58.4846 273.843 57.4817 273.563C56.8402 273.348 56.1789 273.196 55.5076 273.111C55.2982 273.098 55.088 273.113 54.8825 273.155C54.8776 273.175 54.8738 273.196 54.8711 273.217C54.8683 273.287 54.8727 273.357 54.8844 273.426C54.9323 273.702 55.0074 273.973 55.1086 274.234C55.7603 276.058 57.2233 278.805 56.8775 281.287C56.857 281.509 56.7498 281.713 56.5792 281.857C56.3486 282.046 56.0369 282.102 55.7546 282.007C55.4967 281.92 55.2514 281.799 55.025 281.648C54.7896 281.478 54.5382 281.332 54.2745 281.211C53.5145 280.962 52.2567 280.451 51.0939 280.246C50.713 280.162 50.3216 280.136 49.933 280.17C50.0964 280.591 50.3244 281.184 50.3472 281.234C50.7481 282.128 52.4258 284.169 53.2979 285.75C53.7729 286.611 53.9914 287.386 53.885 287.87C53.8414 288.11 53.7108 288.326 53.5183 288.476C53.2521 288.669 52.9104 288.725 52.5968 288.626C52.1568 288.476 51.7379 288.27 51.3504 288.013C51.0647 287.817 50.7542 287.66 50.427 287.545C49.8205 287.395 49.2029 287.294 48.5802 287.243C48.0092 287.179 47.4316 287.208 46.8702 287.331C46.6707 287.386 46.5301 287.441 46.4788 287.564C46.3933 287.754 46.4788 288.015 46.5985 288.309C46.8664 289.005 47.4079 289.829 47.9608 290.694C48.4377 291.442 48.9545 292.164 49.4599 292.894C49.6039 293.085 49.632 293.339 49.533 293.556C49.4341 293.774 49.2239 293.92 48.9855 293.937C48.7471 293.953 48.5186 293.838 48.3902 293.637C47.8753 292.894 47.3471 292.157 46.8607 291.395C46.2584 290.445 45.677 289.54 45.3825 288.78C45.1222 288.106 45.0842 287.513 45.278 287.055C45.4545 286.655 45.7846 286.343 46.1938 286.189C46.6992 285.972 47.4915 285.864 48.6638 285.944C49.3574 286 50.0454 286.111 50.7215 286.276C51.2193 286.394 51.9052 286.846 52.4866 287.171L52.5303 287.194V287.169C52.3259 286.655 52.0673 286.164 51.7589 285.704C50.8241 284.22 49.5169 282.558 49.1616 281.767C49.1179 281.671 48.5118 280.215 48.4795 279.867C48.4353 279.588 48.5714 279.311 48.8196 279.176C49.4599 278.817 50.3662 278.784 51.3276 278.957C52.5531 279.176 53.8774 279.704 54.6811 279.964C54.992 280.09 55.2882 280.249 55.5646 280.439L55.6254 280.474Z" fill="white"/>
<path d="M176.269 33.7132C176.347 33.4792 176.285 33.2216 176.111 33.0475C175.936 32.8735 175.679 32.8127 175.445 32.8905L159.485 38.2105C159.27 38.2811 159.107 38.4585 159.055 38.6787C159.003 38.899 159.069 39.1305 159.23 39.2897L169.87 49.9297C170.029 50.0906 170.261 50.157 170.481 50.105C170.702 50.053 170.879 49.8902 170.949 49.6751L176.269 33.7132ZM160.889 39.1111L170.043 48.2653L174.62 34.534L160.889 39.1111Z" fill="white"/>
<path d="M156.589 344.477L174.271 347.829L159.941 362.162L156.589 344.477Z" fill="white"/>
<path d="M36.1851 195.382L24.4412 209.021L19.1953 189.441L36.1851 195.382Z" fill="#E24F83"/>
<path d="M326.648 317.315V323.067C326.648 323.426 326.94 323.718 327.3 323.718C327.66 323.718 327.952 323.426 327.952 323.067V317.315C327.952 316.955 327.66 316.664 327.3 316.664C326.94 316.664 326.648 316.955 326.648 317.315Z" fill="white"/>
<path d="M336.535 325.888H330.784C330.551 325.888 330.336 326.012 330.219 326.214C330.103 326.416 330.103 326.664 330.219 326.866C330.336 327.067 330.551 327.192 330.784 327.192H336.535C336.768 327.192 336.983 327.067 337.099 326.866C337.216 326.664 337.216 326.416 337.099 326.214C336.983 326.012 336.768 325.888 336.535 325.888Z" fill="white"/>
<path d="M326.648 330.023V335.775C326.648 336.007 326.773 336.223 326.974 336.339C327.176 336.455 327.424 336.455 327.626 336.339C327.828 336.223 327.952 336.007 327.952 335.775V330.023C327.952 329.663 327.66 329.372 327.3 329.372C326.94 329.372 326.648 329.663 326.648 330.023Z" fill="white"/>
<path d="M323.805 325.888H318.054C317.694 325.888 317.402 326.18 317.402 326.54C317.402 326.9 317.694 327.192 318.054 327.192H323.805C324.038 327.192 324.253 327.067 324.369 326.866C324.486 326.664 324.486 326.416 324.369 326.214C324.253 326.012 324.038 325.888 323.805 325.888Z" fill="white"/>
<path d="M195.26 199.071V204.815C195.247 205.056 195.368 205.284 195.575 205.408C195.782 205.533 196.04 205.533 196.247 205.408C196.454 205.284 196.575 205.056 196.562 204.815V199.063C196.575 198.822 196.454 198.594 196.247 198.47C196.04 198.345 195.782 198.345 195.575 198.47C195.368 198.594 195.247 198.822 195.26 199.063V199.071Z" fill="white"/>
<path d="M205.165 207.658H199.413C199.053 207.658 198.762 207.95 198.762 208.31C198.762 208.67 199.053 208.962 199.413 208.962H205.165C205.398 208.962 205.613 208.837 205.729 208.636C205.846 208.434 205.846 208.186 205.729 207.984C205.613 207.782 205.398 207.658 205.165 207.658Z" fill="white"/>
<path d="M195.26 211.785V217.537C195.247 217.777 195.368 218.006 195.575 218.13C195.782 218.255 196.04 218.255 196.247 218.13C196.454 218.006 196.575 217.777 196.562 217.537V211.785C196.575 211.544 196.454 211.316 196.247 211.192C196.04 211.067 195.782 211.067 195.575 211.192C195.368 211.316 195.247 211.544 195.26 211.785Z" fill="white"/>
<path d="M192.425 207.658H186.674C186.441 207.658 186.226 207.782 186.109 207.984C185.993 208.186 185.993 208.434 186.109 208.636C186.226 208.837 186.441 208.962 186.674 208.962H192.425C192.658 208.962 192.873 208.837 192.989 208.636C193.106 208.434 193.106 208.186 192.989 207.984C192.873 207.782 192.658 207.658 192.425 207.658Z" fill="white"/>
<path d="M23.7383 139.763V145.515C23.7383 145.874 24.0301 146.166 24.39 146.166C24.7499 146.166 25.0417 145.874 25.0417 145.515V139.763C25.0417 139.403 24.7499 139.112 24.39 139.112C24.0301 139.112 23.7383 139.403 23.7383 139.763Z" fill="white"/>
<path d="M33.6368 148.338H27.8836C27.5237 148.338 27.2319 148.63 27.2319 148.99C27.2319 149.35 27.5237 149.642 27.8836 149.642H33.6368C33.9968 149.642 34.2885 149.35 34.2885 148.99C34.2885 148.63 33.9968 148.338 33.6368 148.338Z" fill="white"/>
<path d="M23.7383 152.475V158.226C23.7383 158.586 24.0301 158.878 24.39 158.878C24.7499 158.878 25.0417 158.586 25.0417 158.226V152.475C25.0417 152.242 24.9175 152.027 24.7158 151.911C24.5142 151.794 24.2658 151.794 24.0641 151.911C23.8625 152.027 23.7383 152.242 23.7383 152.475Z" fill="white"/>
<path d="M20.8966 148.338H15.1434C14.7835 148.338 14.4917 148.63 14.4917 148.99C14.4917 149.35 14.7835 149.642 15.1434 149.642H20.8966C21.2565 149.642 21.5483 149.35 21.5483 148.99C21.5483 148.63 21.2565 148.338 20.8966 148.338Z" fill="white"/>
<path d="M213.395 101.176L210.197 94.5258C210.04 94.2016 209.649 94.0663 209.325 94.2237C209.001 94.3811 208.865 94.7716 209.023 95.0958L212.22 101.746C212.378 102.07 212.768 102.205 213.093 102.048C213.417 101.891 213.552 101.5 213.395 101.176ZM197.399 101.746L200.596 95.0958C200.754 94.7716 200.618 94.3811 200.294 94.2237C199.97 94.0663 199.579 94.2016 199.422 94.5258L196.222 101.176C196.065 101.501 196.201 101.891 196.526 102.049C196.85 102.206 197.241 102.071 197.399 101.746ZM222.927 88.3204L215.739 86.6807C215.388 86.601 215.039 86.8209 214.959 87.1719C214.88 87.5229 215.099 87.8721 215.45 87.9518L222.638 89.5915C222.989 89.6713 223.338 89.4514 223.418 89.1004C223.498 88.7494 223.278 88.4002 222.927 88.3204ZM186.981 89.5858L194.169 87.9461C194.52 87.8659 194.739 87.5162 194.659 87.1652C194.578 86.8142 194.229 86.5948 193.878 86.675L186.692 88.3147C186.341 88.3945 186.121 88.7437 186.201 89.0947C186.281 89.4457 186.63 89.6656 186.981 89.5858ZM189.99 73.8633L195.753 78.4594C196.035 78.6771 196.439 78.6286 196.661 78.3505C196.883 78.0724 196.841 77.6675 196.566 77.441L190.8 72.8449C190.619 72.6871 190.366 72.6413 190.142 72.7256C189.917 72.81 189.757 73.0109 189.725 73.2487C189.693 73.4864 189.794 73.7225 189.989 73.8633H189.99ZM218.817 72.8449L213.053 77.441C212.778 77.6675 212.736 78.0724 212.958 78.3505C213.18 78.6286 213.584 78.6771 213.866 78.4594L219.629 73.8633C219.891 73.6341 219.927 73.239 219.709 72.9665C219.492 72.694 219.099 72.6405 218.817 72.8449ZM204.159 66.4134V73.7854C204.146 74.0263 204.267 74.2547 204.474 74.3791C204.68 74.5034 204.939 74.5034 205.145 74.3791C205.352 74.2547 205.473 74.0263 205.46 73.7854V66.4134C205.473 66.1726 205.352 65.9442 205.145 65.8198C204.939 65.6955 204.68 65.6955 204.474 65.8198C204.267 65.9442 204.146 66.1726 204.159 66.4134Z" fill="white"/>
<path d="M288.992 77.5505C292.672 73.57 295.203 68.915 298.034 64.3455C298.165 64.1474 298.178 63.894 298.067 63.6839C297.957 63.4737 297.741 63.3402 297.504 63.3351C297.267 63.3301 297.046 63.4544 296.926 63.6596C294.141 68.1569 291.66 72.7473 288.036 76.667C287.851 76.8314 287.775 77.0868 287.84 77.326C287.905 77.5651 288.1 77.7466 288.343 77.7943C288.587 77.8419 288.836 77.7474 288.986 77.5505H288.992Z" fill="white"/>
<path d="M300.608 59.3434C301.038 58.5511 301.399 57.736 301.801 56.9323C301.963 56.6106 301.833 56.2189 301.512 56.0573C301.19 55.8957 300.798 56.0254 300.637 56.3471C300.24 57.1394 299.877 57.9431 299.462 58.7221C299.328 59.0316 299.452 59.3929 299.748 59.5544C300.045 59.716 300.415 59.6244 300.602 59.3434H300.608Z" fill="white"/>
<path d="M13.4413 246.072C6.91666 255.447 2.74996 268.509 1.76956 280.259C1.72496 280.789 2.11881 281.255 2.64926 281.3C3.1797 281.345 3.64586 280.951 3.69046 280.42C4.64046 268.994 8.67796 256.29 15.024 247.17C15.3277 246.733 15.2197 246.133 14.7827 245.829C14.3456 245.525 13.745 245.633 13.4413 246.07V246.072Z" fill="white"/>
<path d="M0.388331 289.043C0.242031 290.16 0.0254314 291.298 0.0083314 292.429C0.00413404 292.961 0.432016 293.395 0.964031 293.399C1.49605 293.404 1.93073 292.976 1.93493 292.444C1.93493 291.391 2.15533 290.335 2.29213 289.294C2.31709 288.792 1.95325 288.356 1.45584 288.291C0.958424 288.225 0.493999 288.552 0.388331 289.043Z" fill="white"/>
</g>
<defs>
<clipPath id="clip0_11_1317">
<rect width="412" height="386" fill="white"/>
</clipPath>
</defs>
</svg>
