<svg width="48" height="48" viewBox="0 0 48 48" fill="none" xmlns="http://www.w3.org/2000/svg">
<g clip-path="url(#clip0_17591_3249)">
<path d="M29.2911 34.31H27.3711V31.31H29.2911C29.6911 31.31 30.0311 31.01 30.0711 30.61L32.9111 4.85999H40.1611V10.78H37.1611V7.85999H35.5911L33.0411 30.94C32.8311 32.86 31.2111 34.31 29.2811 34.31H29.2911Z" fill="#1A73E8"/>
<path d="M13.25 26.45H10.25C10.25 24.23 10.91 23.03 11.43 22.06C11.89 21.22 12.25 20.56 12.25 19.1C12.25 17.64 11.89 16.98 11.43 16.14C10.9 15.17 10.25 13.97 10.25 11.75H13.25C13.25 13.21 13.61 13.87 14.07 14.71C14.6 15.68 15.25 16.88 15.25 19.1C15.25 21.32 14.59 22.52 14.07 23.49C13.61 24.33 13.25 24.99 13.25 26.45Z" fill="#1A73E8"/>
<path d="M19.1094 26.45H16.1094C16.1094 24.23 16.7694 23.03 17.2894 22.06C17.7494 21.22 18.1094 20.56 18.1094 19.1C18.1094 17.64 17.7494 16.98 17.2894 16.14C16.7594 15.17 16.1094 13.97 16.1094 11.75H19.1094C19.1094 13.21 19.4694 13.87 19.9294 14.71C20.4594 15.68 21.1094 16.88 21.1094 19.1C21.1094 21.32 20.4494 22.52 19.9294 23.49C19.4694 24.33 19.1094 24.99 19.1094 26.45Z" fill="#1A73E8"/>
<path d="M24.9805 26.45H21.9805C21.9805 24.23 22.6405 23.03 23.1605 22.06C23.6205 21.22 23.9805 20.56 23.9805 19.1C23.9805 17.64 23.6205 16.98 23.1605 16.14C22.6305 15.17 21.9805 13.97 21.9805 11.75H24.9805C24.9805 13.21 25.3405 13.87 25.8005 14.71C26.3305 15.68 26.9805 16.88 26.9805 19.1C26.9805 21.32 26.3205 22.52 25.8005 23.49C25.3405 24.33 24.9805 24.99 24.9805 26.45Z" fill="#1A73E8"/>
<path d="M29.3898 32.33C29.3898 38.28 24.5598 43.1 18.6098 43.1C12.6598 43.1 7.83984 38.28 7.83984 32.33C7.83984 31.66 7.89984 31.01 8.01984 30.37H29.2098C29.3298 31.01 29.3898 31.66 29.3898 32.33Z" fill="#1A73E8"/>
</g>
<defs>
<clipPath id="clip0_17591_3249">
<rect width="48" height="48" fill="white"/>
</clipPath>
</defs>
</svg>
