<svg width="32" height="32" viewBox="0 0 32 32" fill="none" xmlns="http://www.w3.org/2000/svg">
<g clip-path="url(#clip0_23378_2506)">
<path d="M21.5676 3.26668H7.18755V13.06H4.57422V23.5067H7.18755V28.7333H27.4342V9.76668C25.3542 7.68668 23.6542 5.34668 21.5742 3.26001L21.5676 3.26668ZM21.5876 6.22001C22.0476 6.74001 22.5076 7.26668 22.9809 7.82001C23.5342 8.46668 24.1009 9.12001 24.6876 9.76668H21.5876V6.22001ZM8.51422 21.5667H6.53422V20.2333H8.51422V21.5667ZM8.51422 18.9533H6.53422V17.62H8.51422V18.9533ZM8.51422 16.34H6.53422V15.0067H8.51422V16.34ZM25.4342 26.7333H9.18755V23.5067H19.5942V13.06H9.18755V5.26668H19.5876V11.7667H25.4276V26.7333H25.4342ZM17.6676 17.62V18.9533H9.84089V17.62H17.6609H17.6676ZM9.84755 16.34V15.0067H17.6676V16.34H9.84089H9.84755ZM17.6676 20.2333V21.5667H9.84089V20.2333H17.6609H17.6676Z" fill="#1A73E8"/>
</g>
<defs>
<clipPath id="clip0_23378_2506">
<rect width="32" height="32" fill="white"/>
</clipPath>
</defs>
</svg>
