<svg width="48" height="48" viewBox="0 0 48 48" fill="none" xmlns="http://www.w3.org/2000/svg">
<g clip-path="url(#clip0_17591_3222)">
<path d="M35.5809 15.67H35.2109V15.3C35.3409 15.42 35.4609 15.54 35.5809 15.67Z" fill="black"/>
<path d="M39.1098 21.21C38.2398 21.47 37.3198 21.61 36.3698 21.61C30.9298 21.61 26.5098 17.19 26.5098 11.76C26.5098 11.5 26.5198 11.24 26.5398 10.98C25.7098 10.85 24.8598 10.78 23.9998 10.78C15.0698 10.78 7.83984 18.01 7.83984 26.94C7.83984 35.87 15.0698 43.1 23.9998 43.1C32.9298 43.1 40.1598 35.87 40.1598 26.94C40.1598 24.92 39.7898 22.99 39.1098 21.21ZM28.8998 21.52C29.9798 21.52 30.8598 22.4 30.8598 23.48C30.8598 24.56 29.9798 25.44 28.8998 25.44C27.8198 25.44 26.9398 24.56 26.9398 23.48C26.9398 22.4 27.8198 21.52 28.8998 21.52ZM19.0998 21.52C20.1798 21.52 21.0598 22.4 21.0598 23.48C21.0598 24.56 20.1798 25.44 19.0998 25.44C18.0198 25.44 17.1398 24.56 17.1398 23.48C17.1398 22.4 18.0198 21.52 19.0998 21.52ZM23.9898 36.74C19.3898 36.74 15.6598 33.01 15.6598 28.41H32.3098C32.3098 33.01 28.5898 36.74 23.9898 36.74Z" fill="#1A73E8"/>
<path d="M36.3717 4.90002C32.5817 4.90002 29.5217 7.96002 29.5117 11.75C29.5117 15.54 32.5817 18.61 36.3717 18.61C36.8517 18.61 37.3117 18.56 37.7617 18.47C40.8717 17.83 43.2217 15.06 43.2217 11.76C43.2217 7.97002 40.1517 4.90002 36.3717 4.90002ZM40.1717 12.74H37.2117V15.67H35.2117V12.74H32.3117V10.74H35.2117V7.84002H37.2117V10.74H40.1717V12.74Z" fill="#1A73E8"/>
<path d="M35.5809 15.67H35.2109V15.3C35.3409 15.42 35.4609 15.54 35.5809 15.67Z" fill="black"/>
<path d="M35.5809 15.67H35.2109V15.3C35.3409 15.42 35.4609 15.54 35.5809 15.67Z" fill="#EDB4B4"/>
</g>
<defs>
<clipPath id="clip0_17591_3222">
<rect width="48" height="48" fill="white"/>
</clipPath>
</defs>
</svg>
