<svg width="48" height="48" viewBox="0 0 48 48" fill="none" xmlns="http://www.w3.org/2000/svg">
<g clip-path="url(#clip0_17591_3307)">
<path d="M34.0905 15.6699H13.9105C13.2605 15.6699 12.7305 16.1999 12.7305 16.8499V39.9699C12.7305 40.6199 13.2605 41.1499 13.9105 41.1499H15.6705V42.1399C15.6705 42.6799 16.1105 43.1099 16.6405 43.1099H17.6305C18.1705 43.1099 18.6005 42.6699 18.6005 42.1399V41.1499H29.3605V42.1399C29.3605 42.6799 29.8005 43.1099 30.3305 43.1099H31.4305C31.9705 43.1099 32.4005 42.6699 32.4005 42.1399V41.1499H34.0705C34.7205 41.1499 35.2505 40.6199 35.2505 39.9699V16.8499C35.2505 16.1999 34.7205 15.6699 34.0705 15.6699H34.0905Z" fill="#1A73E8"/>
<path d="M20.1094 9.77995C20.1094 8.69995 20.9894 7.81995 22.0694 7.81995H25.9294C27.0094 7.81995 27.8894 8.69995 27.8894 9.77995V13.7099H30.8894V9.77995C30.8894 7.04995 28.6694 4.81995 25.9294 4.81995H22.0694C19.3394 4.81995 17.1094 7.03995 17.1094 9.77995V13.7099H20.1094V9.77995Z" fill="#1A73E8"/>
</g>
<defs>
<clipPath id="clip0_17591_3307">
<rect width="48" height="48" fill="white"/>
</clipPath>
</defs>
</svg>
